<mxfile host="app.diagrams.net" modified="2023-06-04T12:21:12.186Z" agent="Mozilla/5.0 (Windows NT 10.0; Win64; x64) AppleWebKit/537.36 (KHTML, like Gecko) Chrome/114.0.0.0 Safari/537.36" version="21.3.7" etag="z5Px2ttKTTYXxL_3FBKP" type="github">
  <diagram name="Page-1" id="XhVz9_SfvdyZ4r7WxmOK">
    <mxGraphModel>
      <root>
        <mxCell id="0" />
        <mxCell id="1" parent="0" />
      </root>
    </mxGraphModel>
  </diagram>
</mxfile>
